<?xml version="1.0" encoding="utf-8"?>
<!-- Generator: Adobe Illustrator 27.5.0, SVG Export Plug-In . SVG Version: 6.00 Build 0)  -->
<svg version="1.1" id="Layer_1" xmlns="http://www.w3.org/2000/svg" xmlns:xlink="http://www.w3.org/1999/xlink" x="0px" y="0px"
	 viewBox="0 0 4000 4000" style="enable-background:new 0 0 4000 4000;" xml:space="preserve">
<g>
	<g>
		<rect style="fill:#CCEEFF;" width="4000" height="4000"/>
	</g>
	<g>
		<g>
			<g>
				<polygon style="fill:#FF3829;" points="3172.344,2028.042 2932.201,3335 1085.251,3335 836.918,1983.458 931.625,1900.06 
					1981.733,975.375 				"/>
				<path style="fill:#000072;" d="M2934.14,3337.327H1083.312l-0.349-1.909L834.391,1982.581l95.696-84.268l1051.648-926.042
					L3174.87,2027.166l-0.239,1.294L2934.14,3337.327z M1087.189,3332.669h1843.074l239.553-1303.755L1981.73,978.477
					L839.445,1984.334L1087.189,3332.669z"/>
			</g>
			<g style="opacity:0.3;">
				<polygon style="fill:#000072;" points="1204.297,3335 1085.251,3335 836.918,1983.458 931.625,1900.06 				"/>
			</g>
			<g style="opacity:0.55;">
				<polygon style="fill:#FFFFFF;" points="3141.023,2198.422 2932.201,3335 2872.632,3335 3089.504,2154.815 				"/>
			</g>
			<g>
				<polygon style="fill:#0B98F9;" points="3408.576,1995.977 3299.116,2140.108 3172.344,2028.042 1981.733,975.375 
					836.918,1983.458 722.571,2084.122 591.424,1959.211 1981.687,735 				"/>
			</g>
			<g style="opacity:0.55;">
				<path style="fill:#FFFFFF;" d="M1978.336,978.353L1978.336,978.353L836.918,1983.458l-114.347,100.664l-37.045-35.277
					l109.506-96.429l1133.452-976.797C1943.138,962.991,1965.151,964.198,1978.336,978.353z"/>
			</g>
			<g style="opacity:0.55;">
				<path style="fill:#FFFFFF;" d="M3408.576,1995.977l-109.46,144.131l26.961-40.69l19.805-64.656
					c10.131-17.876,6.225-40.419-9.329-53.845L1937.94,773.627l-1346.47,1185.63l-0.047-0.047L1981.687,735L3408.576,1995.977z"/>
			</g>
			<g style="opacity:0.3;">
				<path style="fill:#000072;" d="M1977.988,3165.164h-235.015c-7.71,0-13.962-6.25-13.962-13.96c0-7.71,6.252-13.96,13.962-13.96
					h235.015c7.71,0,13.962,6.25,13.962,13.96C1991.95,3158.914,1985.698,3165.164,1977.988,3165.164z"/>
			</g>
			<g style="opacity:0.3;">
				<path style="fill:#000072;" d="M2226.645,1205.872h-490.818c-7.71,0-13.962-6.252-13.962-13.962s6.252-13.962,13.962-13.962
					h490.818c7.71,0,13.962,6.252,13.962,13.962S2234.355,1205.872,2226.645,1205.872z"/>
			</g>
			<g style="opacity:0.3;">
				<path style="fill:#000072;" d="M2528.429,1472.693H1432.817c-7.71,0-13.962-6.252-13.962-13.962s6.252-13.962,13.962-13.962
					h1095.613c7.71,0,13.962,6.252,13.962,13.962S2536.139,1472.693,2528.429,1472.693z"/>
			</g>
			<g style="opacity:0.3;">
				<path style="fill:#000072;" d="M2879.799,1783.34h-476.887c-7.71,0-13.962-6.252-13.962-13.962s6.252-13.962,13.962-13.962
					h476.887c7.71,0,13.962,6.252,13.962,13.962S2887.509,1783.34,2879.799,1783.34z"/>
			</g>
			<g style="opacity:0.3;">
				<path style="fill:#000072;" d="M1553.061,1783.34h-473.069c-7.71,0-13.962-6.252-13.962-13.962s6.252-13.962,13.962-13.962
					h473.069c7.71,0,13.962,6.252,13.962,13.962S1560.771,1783.34,1553.061,1783.34z"/>
			</g>
			<g style="opacity:0.3;">
				<path style="fill:#000072;" d="M2514.321,2104.69c-7.517,0-13.721-5.977-13.948-13.54c-0.232-7.71,5.83-14.146,13.538-14.375
					l650.103-19.453c7.681-0.317,14.141,5.83,14.373,13.535c0.232,7.71-5.83,14.145-13.538,14.375l-650.103,19.453
					C2514.604,2104.69,2514.462,2104.69,2514.321,2104.69z"/>
			</g>
			<g style="opacity:0.3;">
				<path style="fill:#000072;" d="M865.671,2154.07c-7.517,0-13.721-5.977-13.948-13.54c-0.232-7.71,5.83-14.146,13.538-14.375
					l576.528-17.266c7.625-0.254,14.141,5.83,14.372,13.535c0.232,7.71-5.83,14.146-13.538,14.375l-576.528,17.265
					C865.954,2154.07,865.812,2154.07,865.671,2154.07z"/>
			</g>
			<g style="opacity:0.3;">
				<path style="fill:#000072;" d="M916.725,2431.907c-7.517,0-13.721-5.977-13.948-13.54c-0.232-7.71,5.83-14.146,13.538-14.375
					l618.271-18.521c7.654-0.195,14.141,5.83,14.373,13.535c0.232,7.71-5.83,14.146-13.538,14.375l-618.272,18.521
					C917.009,2431.907,916.867,2431.907,916.725,2431.907z"/>
			</g>
			<g style="opacity:0.3;">
				<path style="fill:#000072;" d="M2438.276,2386.297c-7.517,0-13.721-5.976-13.948-13.54c-0.232-7.71,5.83-14.146,13.538-14.375
					l674.49-20.195c7.708-0.317,14.143,5.83,14.373,13.535c0.232,7.71-5.83,14.146-13.538,14.375l-674.49,20.196
					C2438.559,2386.297,2438.417,2386.297,2438.276,2386.297z"/>
			</g>
			<g style="opacity:0.3;">
				<path style="fill:#000072;" d="M973.498,2740.789c-7.405,0-13.577-5.82-13.933-13.296c-0.369-7.7,5.579-14.243,13.279-14.609
					l2078.203-99.194c7.681-0.332,14.243,5.576,14.612,13.281c0.369,7.7-5.579,14.243-13.279,14.609l-2078.203,99.195
					C973.95,2740.784,973.722,2740.789,973.498,2740.789z"/>
			</g>
			<g style="opacity:0.3;">
				<path style="fill:#000072;" d="M1021.513,3002.127c-7.422,0-13.599-5.84-13.938-13.33c-0.349-7.7,5.613-14.229,13.315-14.575
					l1990.959-90.215c7.896-0.405,14.617,6.025,14.617,13.945c0,7.583-6.025,13.755-13.56,13.955l-1990.752,90.205
					C1021.94,3002.122,1021.725,3002.127,1021.513,3002.127z"/>
			</g>
			<g>
				<circle style="fill:#0B98F9;" cx="1977.987" cy="2096.798" r="536.442"/>
			</g>
			<g style="opacity:0.55;">
				<path style="fill:#FFFFFF;" d="M2379.782,2452.2c66.085-89.169,105.178-199.56,105.178-319.072
					c0-296.268-240.188-536.456-536.456-536.456c-159.676,0-303.11,69.809-401.353,180.525
					c97.732-131.566,254.289-216.826,430.812-216.826c296.315,0,536.456,240.142,536.456,536.41
					C2514.42,2233.094,2463.552,2357.586,2379.782,2452.2z"/>
			</g>
			<g>
				<path style="fill:#000072;" d="M1977.988,2649.529c-304.778,0-552.732-247.954-552.732-552.729
					c0-304.778,247.954-552.732,552.732-552.732c304.775,0,552.729,247.954,552.729,552.732
					C2530.717,2401.575,2282.763,2649.529,1977.988,2649.529z M1977.988,1576.646c-286.814,0-520.154,233.34-520.154,520.154
					c0,286.811,233.34,520.151,520.154,520.151c286.812,0,520.151-233.34,520.151-520.151
					C2498.139,1809.986,2264.799,1576.646,1977.988,1576.646z"/>
			</g>
			<g>
				<circle style="fill:#000072;" cx="1977.987" cy="2096.798" r="412.267"/>
			</g>
			<g>
				<path style="fill:#000072;" d="M2932.204,3351.282H1085.253c-7.861,0-14.6-5.615-16.021-13.344L820.881,1986.414
					c-1.626-8.848,4.229-17.339,13.076-18.965c8.843-1.626,17.339,4.229,18.965,13.076l245.901,1338.179h1819.812l237.71-1293.589
					c1.626-8.848,10.117-14.683,18.965-13.076c8.848,1.626,14.702,10.117,13.076,18.965l-240.161,1306.934
					C2946.803,3345.667,2940.065,3351.282,2932.204,3351.282z"/>
			</g>
			<g>
				<path style="fill:#000072;" d="M3299.113,2156.414c-3.955,0-7.795-1.44-10.786-4.087L1981.711,997.097L733.359,2096.35
					c-6.338,5.571-15.886,5.381-21.997-0.429l-131.169-124.912c-3.308-3.152-5.142-7.546-5.054-12.114
					c0.09-4.568,2.092-8.889,5.522-11.907L1970.922,722.776c6.157-5.43,15.393-5.42,21.55,0.02l1426.87,1260.962
					c6.389,5.645,7.344,15.264,2.188,22.053l-109.441,144.162c-2.739,3.608-6.858,5.913-11.367,6.362
					C3300.185,2156.389,3299.648,2156.414,3299.113,2156.414z M1981.733,959.085c3.855,0,7.708,1.362,10.789,4.087
					l1304.233,1153.125l89.685-118.142L1981.667,756.721L615.539,1959.683l107.485,102.356L1970.969,963.15
					C1974.045,960.44,1977.89,959.085,1981.733,959.085z"/>
			</g>
			<g style="opacity:0.3;">
				<polygon style="fill:#000072;" points="3141.047,2198.481 1841.671,1098.708 1981.733,975.375 3172.344,2028.169 				"/>
			</g>
			<g style="opacity:0.3;">
				<polygon style="fill:#000072;" points="3172.344,2028.182 3141.069,2198.469 3141.023,2198.422 				"/>
			</g>
			<g>
				<g>
					<path style="fill:#FF960B;" d="M3039.806,3319.253c-32.717,16.847-72.369,15.777-102.805-4.933
						c-2.839-1.955-5.678-4.095-8.377-6.469c-15.545-13.357-28.063-33.368-30.623-63.293l6.608-61.757
						c75.208-20.198,125.004-70.041,151.625-146.831c3.258-9.308,6.144-18.988,8.703-29.087c7.121-28.11,45.003-33.927,59.57-8.843
						C3181.052,3095.307,3179.982,3246.931,3039.806,3319.253z"/>
				</g>
				<g style="opacity:0.55;">
					<path style="fill:#FFFFFF;" d="M3056.281,3309.991c91.031-78.884,85.399-204.26,36.301-288.682
						c-6.19-10.704-16.708-15.777-27.179-15.916c8.005-26.807,44.817-31.972,59.104-7.354
						C3178.725,3091.351,3179.982,3234.645,3056.281,3309.991z"/>
				</g>
				<g>
					<path style="fill:#000072;" d="M2991.855,3347.313c-22.671,0-44.98-6.558-64.011-19.527
						c-27.136-18.496-43.071-46.797-46.084-81.841c-0.771-8.965,5.869-16.856,14.832-17.627c8.965-0.737,16.853,5.874,17.625,14.834
						c2.209,25.674,12.668,44.551,31.975,57.715c24.9,16.968,57.908,18.477,86.13,3.916
						c52.324-26.987,87.893-68.354,102.856-119.619c16.592-56.851,7.341-123.74-24.749-178.935
						c-4.915-8.457-13.416-7.969-15.901-7.627c-2.6,0.366-11.277,2.329-13.796,12.29
						c-25.493,100.732-83.335,163.867-171.921,187.637c-8.696,2.344-17.622-2.827-19.954-11.509
						c-2.332-8.691,2.822-17.622,11.511-19.956c77.417-20.776,126.084-74.472,148.782-164.165
						c4.915-19.419,20.95-33.765,40.854-36.557c19.902-2.793,38.535,6.216,48.589,23.51c36.487,62.764,46.902,139.19,27.856,204.438
						c-17.524,60.044-58.743,108.267-119.197,139.448C3029.65,3342.815,3010.627,3347.313,2991.855,3347.313z"/>
				</g>
				<g style="opacity:0.3;">
					<path style="fill:#000072;" d="M2928.624,3307.851c-15.545-13.357-28.063-33.368-30.623-63.293l6.608-61.757
						c75.208-20.198,125.004-70.041,151.625-146.831h0.047C3056.281,3035.969,3132.744,3274.11,2928.624,3307.851z"/>
				</g>
			</g>
			<g>
				<path style="fill:#EF9F21;" d="M1923.109,3182.796c-60.315-88.041-4.064-191.551-4.064-191.551l90.751,82.095L1923.109,3182.796
					z"/>
				<path style="fill:#000072;" d="M1922.973,3186.717l-1.782-2.608c-60.425-88.193-4.761-192.93-4.189-193.979l1.411-2.598
					l94.561,85.542L1922.973,3186.717z M1919.748,2995.017c-8,16.494-47.312,106.343,3.518,183.833l83.354-105.249
					L1919.748,2995.017z"/>
			</g>
			<g style="opacity:0.3;">
				<path style="fill:#000072;" d="M1923.109,3182.796c-60.315-88.041-4.064-191.551-4.064-191.551l90.751,82.095L1923.109,3182.796
					z"/>
			</g>
			<g>
				<path style="fill:#FF960B;" d="M2902.184,3275.646c-7.214,33.974-36.998,58.406-71.763,58.406h-780.973l-39.651-260.712
					c-1.815-1.396-3.63-2.746-5.445-4.142c-150.182-115.789-235.442-284.912-219.479-471.627l55.382-43.002l53.567-41.56
					l639.959,204.074C2784.579,2761.901,2966.827,2971.373,2902.184,3275.646z"/>
			</g>
			<g style="opacity:0.55;">
				<path style="fill:#FFFFFF;" d="M2902.184,3275.646c-4.095,19.267-15.451,35.509-30.902,45.887
					c0.372-1.303,0.698-2.653,0.978-4.002c64.642-304.273-117.604-513.745-368.405-558.563l-639.959-204.074l-80.326,62.363
					c0.325-6.516,0.745-13.078,1.303-19.686l108.949-84.562l639.959,204.074C2784.579,2761.901,2966.827,2971.373,2902.184,3275.646
					z"/>
			</g>
			<g>
				<path style="fill:#FFFFFF;" d="M1795.637,2754.631c0,0,82.137-73.29,162.886,33.75c80.749,107.04,120.534,132.77,120.534,132.77
					l212.067,198.779c0,0,62.622,53.445,95.42,44.778l-28.411,34.564l-44.526,63.808l-320.098-204.772
					C1993.508,3058.308,1809.519,2888.422,1795.637,2754.631z"/>
			</g>
			<g>
				<path style="fill:#FF960B;" d="M2319.188,3052.863c-49.424,132.636-117.185,229.95-213.01,273.092
					c-5.258,2.373-10.89,3.816-16.568,4.468c-14.008,1.629-27.412,2.839-40.163,3.63c-98.291,5.91-158.791-15.172-155.487-81.676
					c1.489-30.344,16.196-58.267,38.256-79.07c72.74-68.738,129.006-182.247,172.195-331.172c0.698-2.374,1.396-4.794,2.094-7.214
					L2319.188,3052.863z"/>
			</g>
			<g style="opacity:0.55;">
				<path style="fill:#FFFFFF;" d="M2319.188,3052.863c-49.424,132.636-117.185,229.95-213.01,273.092
					c-5.258,2.373-10.89,3.816-16.568,4.468c-14.008,1.629-27.412,2.839-40.163,3.63c-2.932-11.635-2.234-23.828-0.419-34.067
					c4.98-0.466,10.053-1.024,15.172-1.629c5.724-0.651,11.356-2.094,16.568-4.468c85.911-38.721,149.298-121.002,197.14-233.208
					C2284.982,3044.067,2306.576,3039.925,2319.188,3052.863z"/>
			</g>
			<g>
				<path style="fill:#FF960B;" d="M2906.465,2291.948c-62.735,172.846-154.323,234.138-224.551,211.102c0,0-0.047,0-0.139-0.047
					c-7.865-2.606-15.497-6.236-22.758-10.937c0,0.186,0.047,0.419,0.047,0.605c6.004,85.772-12.008,142.875-49.611,180.246
					c0,0,0,0,0,0.047c-24.386,24.247-56.964,40.163-96.569,50.216c-65.247,16.568-149.53,17.08-247.123,12.473
					c-48.261-5.073-95.265-12.752-140.222-24.014c-0.047,0-0.093,0-0.093,0c-187.552-46.818-339.317-154.603-398.607-384.134
					c-5.026-19.36-9.354-39.605-13.031-60.78l86.004-264.109l2.885-8.889c-103.829-18.569-122.025-96.336-45.376-239.676
					c6.701-12.1,13.403-23.502,20.198-34.113c58.406-91.775,120.071-126.958,187.878-57.429c1.35,1.396,2.7,2.792,4.049,4.282
					c85.864-60.222,155.813-9.773,217.198,100.85c172.102,12.426,347.507,83.77,472.372,193.882
					c67.482-43.281,136.592-3.072,169.868,60.501C2938.856,2018.531,2954.54,2156.985,2906.465,2291.948z"/>
			</g>
			<g style="opacity:0.55;">
				<path style="fill:#FFFFFF;" d="M2609.453,2672.918c0,0,0,0,0,0.047c-24.386,24.247-56.964,40.163-96.569,50.216
					c4.095-6.096,11.914-11.867,24.34-17.033c100.85-41.885,86.749-260.852,86.749-260.852
					c4.887,23.921,21.082,38.767,35.091,47.377C2665.067,2578.444,2647.056,2635.547,2609.453,2672.918z"/>
			</g>
			<g style="opacity:0.55;">
				<path style="fill:#FFFFFF;" d="M2580.386,1937.086c-119.735-91.393-266.071-124.317-424.767-135.775
					c-36.347-65.481-98.213-143.551-142.053-156.349c66.225-18.662,122.537,31.646,173.079,122.677
					c163.911,11.821,330.847,77.115,454.221,178.524c-1.168,0.275-2.292,0.572-3.379,0.893
					C2617.806,1952.854,2596.695,1949.535,2580.386,1937.086z"/>
			</g>
			<g style="opacity:0.55;">
				<path style="fill:#FFFFFF;" d="M1965.398,1662.507l-17.592,27.877c0,0-76.231-84.236-170.286,29.552
					C1835.926,1628.162,1897.591,1592.978,1965.398,1662.507z"/>
			</g>
			<g style="opacity:0.55;">
				<path style="fill:#FFFFFF;" d="M2906.465,2291.948c-61.85,170.52-151.856,232.463-221.665,211.986
					c58.174-15.87,121.234-82.747,168.145-211.986c48.075-134.963,32.392-273.417-77.581-269.927
					c-18.988-36.3-49.657-64.968-85.027-74.788c56.731-15.963,110.437,21.082,138.547,74.788
					C2938.856,2018.531,2954.54,2156.985,2906.465,2291.948z"/>
			</g>
			<g>
				<path style="fill:#FFFFFF;" d="M2609.453,2672.918c0,0,0,0,0,0.047c-64.596,64.271-186.901,70.088-343.691,62.688
					c-249.775-26.155-465.391-123.608-538.923-408.148c66.039,99.547,263.552,54.451,263.552,54.451l38.022-15.684
					c93.59-34.253,166.517-9.634,218.734,73.858C2337.99,2591.567,2446.706,2698.979,2609.453,2672.918z"/>
			</g>
			<g>
				<path style="fill:#000072;" d="M2358.105,2754.388c-29.119,0-60.154-0.928-93.108-2.481c-0.313-0.015-0.623-0.039-0.93-0.068
					c-153.396-16.055-271.982-56.499-362.536-123.643c-107.896-80-176.458-200.679-203.777-358.687
					c-0.452-2.612-0.259-5.293,0.562-7.817l83.347-255.972c-37.725-10.173-63.621-29.365-77.109-57.202
					c-22.297-46.013-9.734-112.136,38.406-202.148c47.61-86.013,93.601-130.481,140.71-136.15
					c29.922-3.618,59.487,8.386,88.069,35.647c31.697-19.116,63.089-25.264,93.491-18.269
					c46.489,10.696,89.504,51.436,131.34,124.463c168.804,14.163,340.854,84.438,464.316,189.541
					c27.544-14.517,56.978-18.171,85.796-10.537c36.389,9.644,69.419,36.648,91.814,74.736c34.084,1.409,61.97,15.818,81.094,42.034
					c37.771,51.773,38.616,147.412,2.205,249.599c-43.237,119.141-104.214,197.232-171.729,219.971
					c-25.325,8.525-50.332,8.823-73.613,1.045c0.935,72.461-16.75,126.387-53.752,164.297
					C2568.735,2738.035,2480.348,2754.388,2358.105,2754.388z M2266.991,2719.388c157.527,7.383,274.338,0.083,332.395-59.395
					c34.668-35.522,48.86-90.073,43.384-166.772c-0.439-6.157,2.639-12.036,7.949-15.176c5.308-3.145,11.941-3.023,17.126,0.327
					c21.558,13.901,46.389,16.719,71.821,8.159c57.085-19.229,112.292-92.168,151.47-200.122
					c32.317-90.693,33.167-176.841,2.136-219.375c-14.553-19.946-36.082-29.624-63.867-28.716
					c-6.289,0.205-12.056-3.188-14.956-8.73c-17.822-34.067-46.277-59.126-76.113-67.034c-23.835-6.318-47.563-2.051-70.52,12.69
					c-6.123,3.931-14.111,3.325-19.573-1.492c-120.947-106.672-293.948-177.656-462.776-189.885
					c-5.483-0.396-10.398-3.533-13.066-8.342c-37.922-68.34-76.438-107.429-114.478-116.179
					c-25.076-5.776-50.959,1.025-79.106,20.776c-6.677,4.69-15.796,3.708-21.328-2.288c-24.409-26.46-47.283-38.018-69.927-35.271
					c-35.481,4.27-74.504,44.434-115.991,119.375c-42.166,78.845-54.888,136.909-37.703,172.373
					c10.906,22.502,34.358,36.694,71.699,43.381c4.636,0.83,8.687,3.625,11.106,7.666c2.417,4.041,2.969,8.931,1.511,13.411
					l-87.637,269.148C1779.421,2542.586,1949.994,2686.092,2266.991,2719.388z"/>
			</g>
			<g>
				<path style="fill:#000072;" d="M2647.451,2503.53c-22.354-23.94-39.316-52.461-50.375-82.534
					c-10.923-30.188-16.208-61.653-18.103-92.815c-1.815-31.213-0.385-62.28,3.301-92.878c3.768-30.598,9.53-60.767,16.392-90.598
					c0.864-3.757,4.611-6.104,8.369-5.239c3.635,0.837,5.948,4.37,5.314,8.003l-0.021,0.11c-5.253,29.714-9.376,59.565-11.519,89.46
					c-2.067,29.883-1.869,59.817,1.349,89.165c3.28,29.302,9.755,58.096,20.914,84.597c11.312,26.406,27.355,50.239,47.511,69.79
					l0.125,0.122c6.46,6.267,6.616,16.582,0.35,23.042s-16.583,6.616-23.043,0.352
					C2647.836,2503.931,2647.621,2503.711,2647.451,2503.53z"/>
			</g>
			<g>
				<path style="fill:#000072;" d="M2845.116,2020.676c1.715,39.79,0.477,79.773-4.803,119.216
					c-5.242,39.436-14.606,78.254-28.046,115.41c-1.313,3.628-5.319,5.505-8.947,4.192c-3.444-1.245-5.298-4.961-4.357-8.433
					c10.175-37.139,16.172-75.186,18.181-113.352c2.043-38.176,0.173-76.433-4.492-114.312l-0.004-0.029
					c-1.1-8.936,5.251-17.07,14.188-18.171c8.936-1.101,17.072,5.251,18.173,14.187
					C2845.061,2019.805,2845.096,2020.259,2845.116,2020.676z"/>
			</g>
			<g>
				<path style="fill:#000072;" d="M1796.533,1988.613l53.6-8.64l-8.443,4.099l154.068-129.28c2.957-2.48,7.365-2.095,9.846,0.862
					c2.334,2.781,2.109,6.868-0.386,9.407l-141.454,142.971c-2.18,2.205-4.909,3.535-7.752,3.992l-0.693,0.11l-53.6,8.643
					c-8.881,1.431-17.242-4.607-18.674-13.489S1787.652,1990.046,1796.533,1988.613z"/>
			</g>
			<g>
				<path style="fill:#000072;" d="M1980.917,1678.369c-26.715,24.399-49.683,53.857-69.952,85.212
					c-20.275,31.423-37.961,64.849-54.134,99.058c-1.638,3.494-5.797,5-9.291,3.362c-3.312-1.553-4.818-5.42-3.573-8.789
					c13.499-35.837,28.649-71.243,46.946-105.437c18.333-34.121,39.826-67.205,67.095-96.567c6.127-6.597,16.443-6.978,23.04-0.852
					c6.598,6.128,6.979,16.443,0.852,23.042c-0.299,0.322-0.608,0.627-0.926,0.92L1980.917,1678.369z"/>
			</g>
			<g>
				<path style="fill:#000072;" d="M2136.799,2420.122c34.633,18.974,54.315,49.675,43.962,68.572
					c-10.353,18.897-55.173,23.872-89.806,4.898c-34.633-18.974-45.963-54.712-35.61-73.609S2102.166,2401.148,2136.799,2420.122z"
					/>
			</g>
			<g>
				<path style="fill:#000072;" d="M2207.395,2576.353c-11.095,7.646-23.929,14.219-38.802,16.187
					c-14.884,2.097-30.758-2.288-43.308-9.966c-12.727-7.671-22.842-17.903-31.606-28.542
					c-8.754-10.708-16.226-22.029-23.114-33.528l-0.004-0.007l21.372,7.285c-13.439,5.188-27.454,9.597-42.478,11.411
					c-14.896,1.841-31.264,0.581-45.825-5.95c-14.609-6.401-26.26-17.52-34.258-29.675c-8.062-12.236-13.361-25.381-17.408-38.567
					c-1.133-3.691,0.941-7.6,4.631-8.733c3.431-1.055,7.051,0.664,8.454,3.877l0.031,0.071c5.163,11.79,11.411,22.979,19.212,32.222
					c7.8,9.241,17.341,15.969,27.694,19.089c10.347,3.198,21.605,2.878,32.864,0.127c11.276-2.739,22.429-7.671,33.284-13.384
					c7.186-3.779,15.999-1.321,20.236,5.454l1.138,1.831l0.004,0.005c4.961,11.16,10.394,22.002,16.698,31.978
					c6.299,9.941,13.535,19.055,22.052,25.72c8.492,6.631,18.24,10.798,29.012,10.715c10.759-0.051,22.081-3.862,32.749-9.478
					l0.151-0.081c3.416-1.797,7.64-0.486,9.438,2.93C2211.279,2570.51,2210.272,2574.373,2207.395,2576.353z"/>
			</g>
			<g>
				<path style="fill:#000072;" d="M2085.019,2529.319c-2.534,0-5.105-0.596-7.51-1.846c-7.979-4.155-11.077-13.994-6.921-21.973
					l19.392-37.231c4.155-7.978,13.987-11.074,21.97-6.924c7.979,4.155,11.077,13.994,6.921,21.972l-19.392,37.232
					C2096.576,2526.126,2090.898,2529.319,2085.019,2529.319z"/>
			</g>
			<g>
				<path style="fill:#000072;" d="M2023.578,2587.065c4.932,4.692,9.557,8.943,14.462,12.617c4.927,3.628,9.982,6.829,15.464,9.465
					c2.708,1.362,5.487,2.688,8.424,3.723c2.833,1.309,5.859,2.229,8.893,3.32c6.105,2.063,12.494,3.889,19.187,6.208l0.225,0.078
					c3.763,1.304,5.758,5.41,4.454,9.175c-0.856,2.471-2.935,4.182-5.317,4.692c-7.57,1.609-15.411,1.729-23.242,0.652
					c-1.973-0.178-3.922-0.579-5.867-1.04c-1.954-0.393-3.899-0.898-5.836-1.482c-1.926-0.586-3.829-1.282-5.714-2.063
					c-1.896-0.73-3.793-1.506-5.597-2.495c-7.293-3.735-14.122-8.726-19.575-14.91c-5.492-6.123-9.733-13.257-12.01-20.891
					c-1.134-3.801,1.029-7.803,4.83-8.936c2.551-0.762,5.193-0.039,6.996,1.67L2023.578,2587.065z"/>
			</g>
			<g style="opacity:0.3;">
				<path style="fill:#000072;" d="M2758.294,2496.559c-102.659-69.351-128.935-207.435-96.829-398.051
					c2.987-17.736-13.511-32.76-30.83-27.908c-40.492,11.343-101.68,46.498-116.206,154.998
					c-22.177,165.65,79.566,239.876,134.569,255.57C2648.998,2481.167,2706.318,2510.343,2758.294,2496.559z"/>
			</g>
			<g style="opacity:0.3;">
				<path style="fill:#000072;" d="M1946.193,1690.058c-41.275,56.234-80.244,131.535-104.195,192.99
					c-5.148,13.21-23.955,13.049-28.886-0.243C1783.335,1802.532,1872.985,1660.297,1946.193,1690.058z"/>
			</g>
			<g style="opacity:0.3;">
				<path style="fill:#000072;" d="M2183.527,2717.083c0,0-22.618-1.862-57.988-5.445c-0.047,0-0.093,0-0.093,0
					c-187.552-46.818-339.317-154.603-398.607-384.134c-5.026-19.36-9.354-39.605-13.031-60.78l86.004-264.109l52.915-6.562
					l125.609-115.696C1820.661,2329.134,1874.74,2618.793,2183.527,2717.083z"/>
			</g>
			<g>
				<path style="fill:#000072;" d="M2536.649,2701.062c57.576,10.42,113.843,29.595,165.256,58.259
					c51.383,28.579,97.776,66.838,134.614,113.135c36.991,46.165,63.748,100.388,78.883,157.385
					c7.612,28.501,12.41,57.681,14.701,86.98c2.36,29.319,1.615,58.73-0.865,87.864c-0.782,7.266-1.145,14.597-2.284,21.809
					l-3.08,21.692c-1.185,7.197-2.657,14.338-3.977,21.511c-0.745,3.691-1.206,6.919-2.188,10.994
					c-0.542,2.095-1.052,4.202-1.659,6.277l-2.158,6.138c-6.387,16.108-17.296,30.522-31.527,40.527
					c-14.12,10.051-31.272,16.116-48.665,16.58l-171.222,0.129h-341.257h-0.143c-8.445,0-15.378-6.553-16.08-14.817l-0.002-0.027
					c-1.393-15.674-2.469-31.694-1.912-48.276c0.538-16.506,2.935-33.877,9.374-50.525c6.29-16.655,16.675-31.909,29.087-44.05
					c12.412-12.241,26.467-21.75,40.8-29.902l-7.598,19.226l-0.007-0.022c-11.7-39.165-17.522-80.352-14.933-121.475
					c1.315-20.532,4.739-41.021,10.751-60.837c6.05-19.792,14.692-38.892,26.008-56.323c11.292-17.437,25.271-33.149,41.301-46.248
					c16.014-13.127,34.022-23.604,52.95-31.338c38.004-15.554,78.904-20.105,118.713-19.172c3.855,0.09,6.907,3.289,6.816,7.144
					c-0.088,3.757-3.13,6.753-6.854,6.816l-0.12,0.002c-38.391,0.608-76.906,6.631-111.173,22.3
					c-34.266,15.427-63.19,40.955-81.873,72.783c-18.949,31.736-27.834,68.931-28.625,106.135
					c-0.874,37.302,5.9,74.766,18.051,110.239l0.006,0.02l0.054,0.181c2.233,7.5-1.13,15.337-7.651,19.048
					c-12.463,7.095-24.116,15.11-33.687,24.565c-9.598,9.438-16.908,20.286-21.572,32.502c-4.749,12.185-6.807,25.815-7.262,40.095
					c-0.488,14.275,0.452,29.119,1.801,44.167l0.001,0.024l-16.221-14.814h341.257l170.033-0.107
					c11.083-0.256,21.88-4.146,30.905-10.525c9.106-6.353,16.008-15.603,20.123-25.859l1.385-3.923l1.053-4.033
					c0.703-2.83,1.3-6.648,1.957-9.922c1.249-6.812,2.657-13.604,3.783-20.43l2.914-20.544c1.091-6.838,1.407-13.74,2.156-20.608
					c2.335-27.493,3.046-55.144,0.829-82.549c-2.148-27.395-6.622-54.553-13.683-80.996
					c-14.053-52.878-38.719-102.856-72.904-145.525c-34.044-42.776-77.032-78.291-124.996-104.971
					c-47.982-26.753-100.802-44.802-155.115-54.641l-0.073-0.012c-8.853-1.604-14.728-10.078-13.125-18.931
					S2527.798,2699.458,2536.649,2701.062z"/>
			</g>
			<g>
				<path style="fill:#000072;" d="M2113.223,2836.836c-20.948,88.748-49.998,176.777-97.177,257.532
					c-11.995,20.02-25.439,39.358-40.928,57.197c-3.666,4.609-7.852,8.828-11.785,13.237l-6.001,6.536l-6.329,6.265l-11.837,11.741
					c-3.475,3.577-6.614,7.441-9.578,11.406c-11.737,15.942-18.864,34.91-19.38,54.045c-0.311,9.583,1.01,18.577,4.406,26.14
					c3.349,7.588,8.793,13.87,16.098,18.992c14.784,10.234,35.659,15.085,56.689,17.234c21.222,2.129,43.242,1.836,65.281,0.354
					c11.03-0.762,22.086-1.758,33.151-3.04l2.029-0.227l1.55-0.212c1.028-0.159,2.041-0.352,3.035-0.579
					c1.987-0.457,3.899-1.05,5.701-1.772l1.333-0.566l1.793-0.891l3.588-1.777l7.18-3.547c19.015-9.817,36.329-22.563,53.07-36.094
					c16.89-13.42,32.222-29.045,46.51-45.674c7.291-8.203,13.82-17.104,20.574-25.84c6.29-9.094,12.85-18.03,18.724-27.483
					c6.195-9.238,11.663-18.97,17.393-28.557c5.294-9.839,10.941-19.517,15.825-29.622c10.455-19.863,19.528-40.493,28.513-61.194
					l0.046-0.107c1.537-3.538,5.651-5.161,9.188-3.625c3.339,1.448,4.963,5.22,3.848,8.611
					c-14.432,43.394-31.31,86.367-53.905,126.941c-5.389,10.278-11.638,20.11-17.715,30.056
					c-6.549,9.661-12.897,19.487-20.145,28.745c-14.205,18.665-29.68,36.724-47.561,52.573
					c-17.809,15.92-38.127,29.053-59.395,40.203l-8.087,3.999l-4.045,1.995l-2.024,0.994l-2.585,1.101
					c-3.467,1.389-6.997,2.473-10.542,3.286c-1.772,0.405-3.55,0.745-5.327,1.021l-2.667,0.364l-2.202,0.247
					c-11.492,1.333-23.057,2.378-34.678,3.179c-23.247,1.548-46.808,1.941-70.793-0.452c-11.989-1.243-24.103-3.237-36.249-6.643
					c-12.105-3.45-24.385-8.445-35.755-16.292c-5.682-3.914-10.98-8.738-15.697-14.153c-4.727-5.452-8.521-11.763-11.509-18.301
					c-5.906-13.247-7.621-27.319-7.205-40.376c0.724-26.377,10.519-51.768,25.672-72.319c3.819-5.132,7.875-10.083,12.306-14.658
					l12.263-12.327l5.724-5.767l5.449-6.069c3.594-4.087,7.323-8.03,10.648-12.38c13.89-16.812,26.492-34.832,38.577-53.286
					c24.545-36.729,44.73-76.785,62.988-117.744c9.004-20.559,17.687-41.335,25.515-62.483
					c8.232-21.008,15.519-42.395,23.009-63.765l0.032-0.088c1.277-3.643,5.264-5.559,8.906-4.282
					C2112.13,2829.827,2114.019,2833.408,2113.223,2836.836z"/>
			</g>
			<g>
				<path style="fill:#000072;" d="M2009.785,3089.612c-3.416,0-6.86-1.07-9.797-3.286
					c-163.11-123.037-247.439-301.689-231.36-490.142c0.767-8.965,8.689-15.601,17.615-14.844
					c8.965,0.767,15.61,8.652,14.846,17.617c-15.108,177.051,64.541,345.21,218.518,461.362c7.183,5.415,8.611,15.63,3.193,22.813
					C2019.599,3087.376,2014.721,3089.612,2009.785,3089.612z"/>
			</g>
			<g>
				<path style="fill:#000072;" d="M1923.124,3199.085c-5.193,0-10.295-2.476-13.452-7.085
					c-65.203-95.171-7.432-203.95-4.939-208.535c4.292-7.905,14.187-10.825,22.09-6.533c7.898,4.292,10.825,14.17,6.543,22.07
					c-0.769,1.44-50.474,96.27,3.181,174.59c5.085,7.417,3.191,17.559-4.231,22.642
					C1929.501,3198.162,1926.296,3199.085,1923.124,3199.085z"/>
			</g>
			<g>
				<path style="fill:#000072;" d="M2321.22,3350.34h-271.765c-8.997,0-16.289-7.295-16.289-16.289
					c0-8.994,7.292-16.289,16.289-16.289h271.765c8.997,0,16.289,7.295,16.289,16.289
					C2337.509,3343.045,2330.217,3350.34,2321.22,3350.34z"/>
			</g>
			<g>
				
					<rect x="2262.462" y="3196.453" transform="matrix(0.4694 -0.883 0.883 0.4694 -1655.8054 3733.4878)" style="fill:#000072;" width="32.582" height="96.192"/>
			</g>
			<g>
				<path style="fill:#000072;" d="M2384.586,3161.711c5.459-1.692,9.884-2.761,14.752-3.831c4.756-1.067,9.517-1.924,14.274-2.693
					c4.749-0.85,9.54-1.289,14.294-1.941c4.778-0.476,9.568-0.793,14.336-1.187c19.133-1.082,38.364-0.083,57.227,3.005
					c9.473,1.289,18.724,3.865,27.959,6.184c4.561,1.409,9.053,3.066,13.561,4.592c2.241,0.806,4.518,1.497,6.72,2.397l6.517,2.944
					c17.67,7.19,33.446,18.054,48.457,29.285c3.081,2.305,3.711,6.672,1.405,9.756c-2.175,2.908-6.187,3.63-9.222,1.768
					l-0.516-0.322c-14.962-9.258-30.214-18.008-46.913-23.154l-6.132-2.178c-2.07-0.649-4.211-1.091-6.307-1.646
					c-4.221-1.028-8.391-2.19-12.615-3.118c-8.584-1.357-17.059-2.998-25.736-3.411c-17.235-1.326-34.608-0.752-51.698,1.687
					l-12.749,2.163c-4.197,0.962-8.44,1.699-12.574,2.82c-4.16,1.045-8.281,2.153-12.317,3.433c-3.94,1.201-8.25,2.708-11.387,3.987
					l-0.344,0.142c-8.34,3.401-17.86-0.601-21.263-8.943c-3.403-8.34,0.599-17.861,8.94-21.262
					C2383.685,3162.014,2384.149,3161.848,2384.586,3161.711z"/>
			</g>
			<g>
				<path style="fill:#000072;" d="M1967.736,3266.597c-1.846,4.541-3.479,9.998-4.507,15.073
					c-1.05,5.161-1.577,10.315-1.537,15.247c0.139,4.922,0.967,9.548,2.348,13.665c1.434,4.109,3.765,7.478,6.26,10.486l0.113,0.137
					c4.951,5.964,4.127,14.814-1.838,19.763c-5.966,4.951-14.814,4.128-19.765-1.838c-0.576-0.693-1.108-1.494-1.528-2.253
					c-3.67-6.748-6.248-13.979-7.144-21.228c-0.842-7.214-0.477-14.216,0.713-20.796c1.296-6.553,3.287-12.72,5.771-18.545
					c2.557-5.891,5.315-11.174,9.054-16.743c2.15-3.201,6.489-4.055,9.692-1.904c2.796,1.877,3.801,5.425,2.579,8.425
					L1967.736,3266.597z"/>
			</g>
			<g>
				<path style="fill:#000072;" d="M2066.241,3270.645c-1.847,4.541-3.48,9.998-4.508,15.073c-1.05,5.161-1.576,10.315-1.537,15.247
					c0.138,4.922,0.968,9.548,2.349,13.665c1.434,4.111,3.765,7.478,6.26,10.486l0.114,0.137c4.95,5.964,4.127,14.814-1.838,19.763
					c-5.966,4.951-14.816,4.128-19.766-1.838c-0.575-0.693-1.107-1.494-1.528-2.253c-3.669-6.748-6.248-13.979-7.144-21.228
					c-0.842-7.214-0.477-14.216,0.713-20.796c1.296-6.553,3.287-12.72,5.771-18.545c2.556-5.891,5.314-11.174,9.054-16.743
					c2.15-3.201,6.488-4.055,9.691-1.904c2.797,1.877,3.801,5.425,2.578,8.425L2066.241,3270.645z"/>
			</g>
			<g>
				<path style="fill:#000072;" d="M2429.102,3253.853c-4.415,4.812-8.734,11.099-11.809,17.229
					c-3.142,6.238-5.248,12.778-6.146,19.233c-0.594,3.22-0.45,6.443-0.51,9.59c0.481,3.149,0.526,6.262,1.56,9.265
					c1.289,6.084,4.508,11.707,7.729,17.151l0.494,0.835c3.943,6.665,1.737,15.264-4.927,19.207s-15.262,1.736-19.205-4.927
					c-0.317-0.537-0.625-1.162-0.864-1.721c-3.556-8.484-6.71-17.29-7.36-26.724c-0.703-4.617-0.258-9.346-0.099-13.948
					c0.695-4.587,1.333-9.146,2.78-13.457c2.614-8.679,6.691-16.614,11.667-23.625c5.109-7.065,10.564-13.074,17.639-18.74
					c3.004-2.405,7.389-1.919,9.795,1.084c2.18,2.722,1.987,6.577-0.303,9.067L2429.102,3253.853z"/>
			</g>
			<g>
				<path style="fill:#000072;" d="M2521.414,3262.285c-2.793,4.519-5.507,10.435-7.113,16.008
					c-1.718,5.674-2.583,11.487-2.632,17.158c-0.065,5.674,0.571,11.24,2.209,16.526c1.35,5.327,3.928,10.303,6.555,15.112
					l0.299,0.547c3.715,6.804,1.212,15.33-5.591,19.043c-6.802,3.716-15.327,1.211-19.042-5.591
					c-0.369-0.674-0.699-1.44-0.947-2.144c-2.555-7.395-4.739-14.939-5.348-22.793c-0.892-7.764-0.392-15.647,1.064-23.145
					c1.438-7.52,3.92-14.705,7.275-21.313c1.694-3.298,3.528-6.492,5.599-9.531c2.117-3.113,4.171-5.811,7.04-8.928
					c2.603-2.832,7.008-3.015,9.839-0.413c2.499,2.297,2.936,6.001,1.212,8.784L2521.414,3262.285z"/>
			</g>
			<g style="opacity:0.3;">
				<path style="fill:#000072;" d="M2574.708,2854.846c0,0-194.537,121.514-80.323,309.862c0,0-147.907,41.099-91.697,116.856
					l13.293-23.804c0,0,30.777,57.224,85.713,33.017l-0.969,44.221l-179.504-6.019c-8.428-71.855,11.681-126.413,69.033-158.396
					C2344.056,3018.825,2379.969,2902.534,2574.708,2854.846z"/>
			</g>
			<g style="opacity:0.3;">
				<path style="fill:#000072;" d="M2047.157,2904.778l53.53-49.938c0,0-47.423,150.973-96.336,214.359
					c-150.182-115.789-235.442-284.912-219.479-471.627l55.382-43.002c82.607,119.838,233.952,170.659,425.507,181.084
					c0,0-191.136,59.058-369.381-18.569c0,1.632,0.322,100.63,78.466,185.387
					C1993.974,2923.216,2026.525,2924.026,2047.157,2904.778z"/>
			</g>
			<g style="opacity:0.3;">
				<path style="fill:#000072;" d="M2311.306,3073.323c0,0,32.02,36.178,52.963,8.255l22.274,97.512c0,0-51.021,49.305-69.225,78.67
					l3.903,71.219l-214.711,5.073C2206.469,3263.802,2282.357,3180.9,2311.306,3073.323z"/>
			</g>
			<g style="opacity:0.3;">
				<path style="fill:#000072;" d="M1987.039,3213.423c-42.397,43.468-36.486,45.375-30.716,61.478l0.006,7.586
					c0,0,33.502,22.013,100.053-7.539c-0.652,1.49-13.822,31.786-6.934,59.105c-98.291,5.91-158.791-15.172-155.487-81.676
					c1.489-30.344,16.196-58.267,38.256-79.07c72.74-68.738,129.006-182.247,172.195-331.172c0,0,58.965,71.205,20.197,149.111
					C2085.795,3069.152,2029.436,3170.002,1987.039,3213.423z"/>
			</g>
			<g style="opacity:0.3;">
				<path style="fill:#000072;" d="M1897.73,3282.487c1.163,3.49,2.653,6.748,4.375,9.866
					C1900.336,3289.282,1898.893,3285.977,1897.73,3282.487z"/>
			</g>
			<g>
				<g>
					
						<ellipse transform="matrix(0.4583 -0.8888 0.8888 0.4583 -880.6045 3015.0535)" style="fill:#000072;" cx="2033.31" cy="2229.993" rx="94.116" ry="71.668"/>
				</g>
				<g>
					
						<ellipse transform="matrix(0.4583 -0.8888 0.8888 0.4583 -861.3183 3031.9556)" style="fill:#FFFFFF;" cx="2056.841" cy="2222.627" rx="27.49" ry="20.933"/>
				</g>
			</g>
			<g>
				<g>
					<path style="fill:#A09A9A;" d="M1812.285,3302.592c-3.584,18.476-20.338,31.46-39.14,31.46h-95.964
						c-11.123,0-20.105-8.982-20.105-20.105l-86.888-196.302l-11.821-26.76l215.383-92.52l2.187,225.156
						C1804.652,3243.487,1817.496,3275.878,1812.285,3302.592z"/>
					<path style="fill:#000072;" d="M1773.146,3336.072h-95.964c-12.053,0-21.887-9.688-22.122-21.689l-99.368-224.546
						l220.046-94.522l2.207,227.153c27.366,19.478,41.941,51.699,36.321,80.508
						C1810.546,3322.151,1793.251,3336.072,1773.146,3336.072z M1561.039,3091.936l98.057,222.012
						c0,9.971,8.113,18.081,18.086,18.081h95.964c18.176,0,33.804-12.539,37.156-29.824l0,0
						c5.379-27.559-8.896-58.516-35.517-77.021l-0.857-0.596l-2.168-223.169L1561.039,3091.936z"/>
				</g>
				<g style="opacity:0.55;">
					<path style="fill:#FFFFFF;" d="M1812.285,3302.592c-3.584,18.476-20.338,31.46-39.14,31.46h-14.474
						c10.052-5.399,17.638-14.892,19.965-26.62c5.165-26.667-7.68-59.105-36.394-79.07l-2.094-215.569l33.601-14.427l2.187,225.156
						C1804.652,3243.487,1817.496,3275.878,1812.285,3302.592z"/>
				</g>
				<g style="opacity:0.3;">
					<path style="fill:#000072;" d="M1694.121,3325.117c-2.931,3.118-5.771,6.097-8.563,8.936h-8.377
						c-11.123,0-20.105-8.982-20.105-20.105l-86.888-196.302c3.025-6.655,7.353-11.635,13.775-14.334l106.342,29.273v89.402
						C1690.305,3221.986,1736.006,3280.905,1694.121,3325.117z"/>
				</g>
				<g>
					<path style="fill:#A09A9A;" d="M1023.167,3200.113c-247.402,20.524-362.4-178.105-285.983-402.703v-0.047
						c5.026-14.799,10.89-29.692,17.592-44.678c62.316-115.23,139.757-90.053,162.235-22.571c0,0.047,0,0.047,0,0.047
						c10.564,31.6,9.075,72.461-11.728,112.531c-7.12,14.986-12.891,29.646-17.359,43.933
						c-29.087,92.52-3.77,168.379,64.271,200.397h0.047c15.404,7.307,33.089,12.286,52.775,14.706L1023.167,3200.113z"/>
					<path style="fill:#000072;" d="M989.018,3203.577c-94.226,0-172.004-33.882-221.411-97.168
						c-60.884-77.998-72.7-190.737-32.441-309.331l0.107-0.366c5.022-14.785,10.964-29.878,17.661-44.854
						c40.317-74.561,81.511-82.554,102.512-80.771c27.974,2.446,52.297,24.819,63.481,58.388l0.103,0.356
						c11.667,35.22,7.317,76.67-11.953,113.794c-6.958,14.644-12.764,29.331-17.224,43.599
						c-28.362,90.21-4.299,165.947,62.795,197.778l0.461,0.195c15.322,7.271,32.869,12.158,52.153,14.527l1.47,0.185l18.826,102.031
						l-2.224,0.185C1011.679,3203.094,1000.229,3203.577,989.018,3203.577z M739.203,2797.693l-0.107,0.366
						c-39.944,117.407-28.391,228.887,31.694,305.859c54.045,69.238,142.764,102.735,249.985,94.361l-17.478-94.732
						c-18.97-2.466-36.292-7.344-51.518-14.507l-0.444-0.191c-69.373-32.646-94.407-110.366-65.337-202.832
						c4.517-14.443,10.393-29.316,17.463-44.194c18.855-36.328,23.083-76.773,11.633-111.026l-0.102-0.356
						c-10.713-31.846-33.64-53.037-59.898-55.332c-34.509-3.022-69.524,24.878-98.54,78.535
						C750.024,2768.264,744.164,2783.128,739.203,2797.693z"/>
				</g>
				<g>
					<path style="fill:#FFFFFF;" d="M905.284,2842.692c-7.12,14.986-12.891,29.646-17.359,43.933
						c-87.959,51.798-138.221,22.06-150.74-89.215v-0.047c5.026-14.799,10.89-29.692,17.592-44.678
						C846.319,2583.423,970.438,2717.083,905.284,2842.692z"/>
				</g>
				<g>
					<g>
						<path style="fill:#A09A9A;" d="M1620.264,3192.387c-0.466,0.279-0.931,0.605-1.396,0.884l5.445,21.734
							c55.429,13.962,82.189,92.287-5.445,119.047h-92.287c-40.722-5.212-68.599-39.605-82.421-82.886l-3.444,1.582l-2.094,0.931
							c0.837,1.257,1.582,2.513,2.28,3.77c18.569,33.601-2.839,76.603-36.114,76.603H1210.86c-0.606-0.047-1.163-0.093-1.769-0.14
							c-107.598-7.679-197.931-96.708-204.027-211.008c-2.792-52.635,14.055-104.341,44.957-147.063
							c43.607-60.315,94.335-109.134,154.742-142.456l121.886-126.074l6.423-6.608l447.52-52.263
							c19.267,48.308,28.807,98.849,30.25,149.111C1815.449,2959.692,1735.076,3119.088,1620.264,3192.387z"/>
						<path style="fill:#000072;" d="M1619.172,3336.072h-92.59c-37.571-4.79-67.874-34.668-83.64-82.124l-1.365,0.625
							c0.378,0.635,0.74,1.265,1.091,1.895c9.785,17.705,9.495,39.497-0.757,56.87c-8.521,14.448-22.053,22.734-37.124,22.734
							l-195.842-0.142c-111.328-7.949-199.846-99.482-205.898-212.92c-2.729-51.479,13.372-104.165,45.339-148.35
							c46.309-64.057,97.058-110.806,155.134-142.896l128.604-132.988l449.771-52.524l0.571,1.44
							c18.66,46.778,28.884,97.178,30.396,149.8c4.507,158.647-74.243,321.733-191.509,396.597l-0.168,0.107l4.797,19.155
							c29.27,7.891,50.876,33.159,51.555,60.513c0.693,27.993-20.476,50.635-58.076,62.119L1619.172,3336.072z M1445.39,3248.377
							l0.693,2.173c15.061,47.153,44.495,76.86,80.754,81.499l91.729-0.019c35.557-10.938,55.574-32.09,54.932-58.066
							c-0.642-25.938-21.536-49.912-49.678-57.002l-1.172-0.293l-6.104-24.36l2.634-1.626
							c116.128-74.135,194.114-235.776,189.644-393.071c-1.482-51.611-11.418-101.055-29.538-146.982l-445.266,51.997l-5.921,6.094
							l-122.358,126.436c-57.656,31.802-108.057,78.208-154.082,141.87c-31.426,43.447-47.258,95.215-44.578,145.771
							c5.945,111.406,92.852,201.299,202.156,209.101l1.772,0.137l193.779-0.005c13.606,0,25.869-7.559,33.645-20.742
							c9.526-16.153,9.797-36.406,0.703-52.862c-0.669-1.201-1.387-2.417-2.192-3.623l-1.331-1.992L1445.39,3248.377z"/>
					</g>
				</g>
				<g>
					<path style="fill:#A09A9A;" d="M1597.807,2026.169c59.98-53.972,123.385-96.297,192.249-120.064
						c24.75-8.542,51.812,3.607,61.458,27.948c21.546,54.365,55.348,155.926,54.626,256.569"/>
					<path style="fill:#000072;" d="M1908.161,2190.638l-4.038-0.029c0.723-101.133-33.826-203.682-54.485-255.811
						c-9.214-23.242-35.093-35-58.923-26.782c-63.945,22.07-126.604,61.211-191.558,119.653l-2.7-2.998
						c65.361-58.816,128.472-98.223,192.939-120.474c25.879-8.936,53.984,3.855,63.997,29.111
						C1874.16,1985.711,1908.891,2088.821,1908.161,2190.638z"/>
				</g>
				<g style="opacity:0.55;">
					<path style="fill:#FFFFFF;" d="M1183.448,3006.51c100.864,18.58,162.936,79.481,161.047,210.158
						c-0.084,5.785,1.269,11.5,3.78,16.713l0.503,1.043c3.231,6.706,9.711,11.27,17.122,11.969
						c24.124,2.278,77.448,11.211,81.937,45.774c13.653-7.396-18.462-78.524-71.763-72.508
						C1376.748,3079.818,1293.627,2996.802,1183.448,3006.51z"/>
				</g>
				<g style="opacity:0.55;">
					<path style="fill:#FFFFFF;" d="M1906.154,2190.633l-32.857-17.545c-5.025-90.565-34.438-177.966-53.891-226.971
						c-9.122-23.037-33.787-35.137-57.383-29.18c9.215-3.956,18.569-7.586,28.017-10.844c24.758-8.517,51.844,3.63,61.478,27.97
						C1873.064,1988.421,1906.852,2089.969,1906.154,2190.633z"/>
				</g>
				<g style="opacity:0.55;">
					<path style="fill:#FFFFFF;" d="M1620.264,3192.387c-0.466,0.279-0.931,0.605-1.396,0.884l5.445,21.734
						c55.429,13.962,82.189,92.287-5.445,119.047h-29.134c74.928-29.599,48.122-102.06-4.98-115.417l-5.445-21.734l-35.171-342.316
						c-0.509-4.957,6.586-6.38,8.028-1.61l19.418,64.272l39.651,256.616c98.244-80.233,164.237-225.342,160.048-372.685
						c-1.443-49.937-10.844-100.152-29.878-148.181l39.186-4.561c19.267,48.308,28.807,98.849,30.25,149.111
						C1815.449,2959.692,1735.076,3119.088,1620.264,3192.387z"/>
				</g>
				<g>
					<path style="fill:#FFFFFF;" d="M1620.264,3192.387l-31.507-175.033c38.022-24.992,70.274-60.966,90.891-118.814
						c26.807-66.597,68.692-103.829,131.193-100.99C1815.449,2959.692,1735.076,3119.088,1620.264,3192.387z"/>
				</g>
				<g>
					<path style="fill:#A09A9A;" d="M1973.263,2471.915c-23.735,66.365-62.968,103.038-121.979,138.966
						c-1.396,0.838-2.792,1.722-4.235,2.513c-57.848,34.625-120.536,60.641-185.738,77.814
						c-405.682,106.807-669.605-119.14-513.279-471.395c-30.903-46.027-45.097-95.359-47.61-154.277
						c-1.024-22.944,16.335-42.49,39.186-44.678c111.181-10.704,225.249-8.656,300.875,16.708
						C1745.594,1956.96,2056.801,2238.289,1973.263,2471.915z"/>
					<path style="fill:#000072;" d="M1468.364,2719.851c-129.241,0-236.245-40.327-301.941-117.495
						c-80.52-94.575-87.856-230.322-20.688-382.344c-29.695-44.595-44.739-93.692-47.332-154.39
						c-1.064-23.926,16.948-44.473,41.013-46.777c125.715-12.095,232.62-6.201,301.135,16.616
						c159.8-41.98,338.027,12.583,454.199,139.087c84.272,91.768,114.333,203.189,80.415,298.047l0,0
						c-24.751,69.204-67.004,106.021-122.832,140.01l-1.265,0.767c-1.003,0.615-2.014,1.23-3.047,1.797
						c-57.302,34.297-119.968,60.552-186.194,77.993C1593.793,2711.072,1528.656,2719.851,1468.364,2719.851z M1260.297,2016.736
						c-37.471,0-77.883,2.031-120.496,6.133c-21.921,2.1-38.333,20.801-37.363,42.578c2.576,60.352,17.598,109.043,47.27,153.237
						l0.62,0.928l-0.452,1.021c-66.98,150.932-60.012,285.566,19.622,379.106c95.308,111.948,278.97,145.42,491.299,89.517
						c65.859-17.344,128.174-43.452,185.215-77.593c1.045-0.576,2.002-1.157,2.952-1.738l1.282-0.777
						c55.081-33.535,96.763-69.824,121.116-137.91l0,0c33.403-93.423,3.652-203.311-79.585-293.955
						c-115.31-125.571-292.249-179.646-450.779-137.764l-0.583,0.156l-0.574-0.195
						C1394.948,2024.422,1333.207,2016.736,1260.297,2016.736z"/>
				</g>
				<g style="opacity:0.55;">
					<path style="fill:#FFFFFF;" d="M1973.263,2471.915c-8.982,25.085-20.151,45.888-33.741,64.038
						c4.933-9.634,9.354-19.966,13.357-31.135c83.537-233.626-227.669-514.955-532.78-434.35
						c-75.626-25.364-189.693-27.411-300.875-16.708c-6.842,0.652-13.217,2.885-18.709,6.283
						c1.722-20.477,18.104-37.185,39.093-39.186c111.181-10.704,225.249-8.656,300.875,16.708
						C1745.594,1956.96,2056.801,2238.289,1973.263,2471.915z"/>
				</g>
				<g>
					<path style="fill:#000072;" d="M1468.51,2734.07c-133.552,0-244.487-42.061-312.947-122.476
						c-82.988-97.48-92.105-235.806-25.952-390.244c-28.398-45.132-42.893-94.683-45.483-155.103
						c-1.35-31.523,22.336-58.589,53.926-61.619c72.949-7,208.23-14.072,302.944,15.964
						c163.809-41.289,345.537,15.039,464.253,144.316c87.915,95.737,119.075,212.559,83.349,312.49
						c-26.16,73.169-70.43,111.836-128.85,147.387c-59.602,36.26-124.971,63.901-194.29,82.154
						C1596.313,2725.149,1530.009,2734.07,1468.51,2734.07z M1260.453,2030.994c-37.019,0-77.026,2.007-119.289,6.064
						c-14.341,1.372-25.098,13.584-24.487,27.793c2.466,57.569,16.733,103.926,44.895,145.899
						c3.118,4.648,3.633,10.571,1.362,15.684c-64.634,145.63-58.443,274.917,17.436,364.043
						c91.665,107.676,269.905,139.438,476.794,84.961c66.277-17.451,128.74-43.853,185.652-78.482
						c54.001-32.861,92.095-66.157,115.11-130.522c31.577-88.34,2.917-192.817-76.672-279.488
						c-111.77-121.719-283.164-174.165-436.626-133.647c-3.074,0.815-6.318,0.708-9.333-0.302
						C1391.803,2038.431,1331.684,2030.994,1260.453,2030.994z"/>
				</g>
				<g>
					<path style="fill:#000072;" d="M1906.144,2206.912c-0.039,0-0.078,0-0.12,0c-8.994-0.064-16.235-7.412-16.172-16.406
						c0.708-98.716-33.203-199.287-53.481-250.452c-6.392-16.128-24.402-24.287-41.001-18.55
						c-62.104,21.433-123.164,59.631-186.667,116.775c-6.689,6.011-16.985,5.469-23.005-1.216
						c-6.016-6.685-5.474-16.982,1.213-23.003c66.812-60.117,131.521-100.466,197.83-123.352
						c33.12-11.421,69.087,4.978,81.917,37.341c21.15,53.367,56.519,158.457,55.774,262.69
						C1922.365,2199.695,1915.085,2206.912,1906.144,2206.912z"/>
				</g>
				<g>
					
						<rect x="1676.628" y="2399.18" transform="matrix(0.9981 -0.0618 0.0618 0.9981 -145.6399 108.9723)" style="fill:#000072;" width="23.267" height="17.93"/>
				</g>
				<g>
					<g>
						<path style="fill:#000072;" d="M1725.396,2497.512c-15.823,41.001-60.082,38.022-84.282,6.562v-0.046
							c-6.888-9.029-12.194-20.384-14.66-33.694l57.708-27.345l46.911,13.151
							C1731.679,2473.079,1729.491,2486.761,1725.396,2497.512z"/>
					</g>
					<g>
						<path style="fill:#EA5454;" d="M1725.396,2497.512c-15.823,41.001-60.082,38.022-84.282,6.562v-0.046
							c12.147-30.343,71.019-35.044,84.236-6.562L1725.396,2497.512z"/>
						<path style="fill:#000072;" d="M1685.131,2530.315c-16.684,0-33.782-9.116-45.862-24.819l-0.483-0.63l0.166-1.704
							c7.19-17.959,28.882-26.49,47.192-26.983c19.265-0.439,34.978,7.119,41.147,19.951l0.757,0.796l-0.483,1.426
							c-6.931,17.959-19.729,29.146-36.035,31.509C1689.411,2530.164,1687.275,2530.315,1685.131,2530.315z M1643.779,2503.704
							c12.576,15.708,30.508,23.965,47.085,21.548c14.282-2.065,25.605-11.86,31.98-27.617c-6.57-12.91-23.03-17.134-36.575-16.802
							C1669.904,2481.272,1650.668,2488.518,1643.779,2503.704z"/>
					</g>
					<g>
						<path style="fill:#000072;" d="M1680.92,2348.199c0,0-44.6,1.939-43.824,27.536c0.571,18.854,25.552,29.292,38.672,33.482
							c5.139,1.641,10.671,1.116,15.397-1.486c9.81-5.402,26.103-16.646,29.402-33.087c1.597-7.961-2.155-16.108-9.355-19.863
							C1705.149,2351.618,1695.562,2348.561,1680.92,2348.199z"/>
					</g>
					<g>
						<path style="fill:#000072;" d="M1782.673,2417.346c-0.922,6.091-2.883,12.117-5.626,17.91
							c-2.887,5.713-6.688,11.108-11.334,15.823c-9.322,9.409-22.162,15.659-35.921,16.936c-13.617,1.311-28.749-2.456-39.7-12.432
							c-5.454-4.863-9.816-10.901-12.694-17.358c-2.796-6.499-4.39-13.252-4.797-19.854l-0.011-0.061l23.161-0.146
							c-0.438,3.657-1,7.336-1.638,10.994c-1.008,3.569-2.245,7.119-3.53,10.625c-1.616,3.352-3.536,6.572-5.362,9.822
							c-2.16,3.008-4.519,5.886-6.83,8.784c-10.242,10.664-23.402,18.125-37.538,21.05c-14.041,2.964-29.186,2.061-42.351-3.97
							c-13.26-5.781-23.857-16.323-30.276-28.259c-1.83-3.406-0.555-7.649,2.85-9.48c3-1.614,6.654-0.815,8.732,1.729l0.162,0.2
							c7.021,8.582,15.746,14.895,25.463,17.893c9.707,2.898,20.208,2.991,29.929-0.007c9.641-3.008,18.676-8.25,25.078-15.674
							c6.633-7.207,10.628-16.165,12.136-25.847l0.118-0.762c0.988-6.34,6.928-10.681,13.27-9.692
							c5.334,0.83,9.25,5.176,9.773,10.305l0.004,0.039c1.552,8.833,4.993,16.289,10.624,21.274
							c5.582,4.995,13.481,7.661,21.845,7.439c8.361-0.181,16.937-3.223,24.099-8.594c7.244-5.349,12.832-13.215,16.895-22.358
							l0.103-0.232c1.575-3.545,5.727-5.144,9.273-3.569C1781.534,2411.187,1783.133,2414.297,1782.673,2417.346z"/>
					</g>
					<g>
						<path style="fill:#000072;" d="M1685.156,2539.622c-19.561,0-39.409-10.444-53.264-28.452
							c-0.19-0.249-0.371-0.503-0.542-0.767c-8.098-10.845-13.743-23.95-16.335-37.949l22.881-4.238
							c1.985,10.722,6.296,20.664,12.468,28.755c0.146,0.19,0.286,0.385,0.417,0.581c10.391,13.159,25.525,20.381,38.75,18.491
							c11.255-1.631,19.902-9.487,25.01-22.72c3.767-9.888,5.425-22.275,4.905-36.768l23.257-0.83
							c0.63,17.617-1.536,33.071-6.436,45.928c-8.093,20.976-23.906,34.594-43.403,37.417
							C1690.309,2539.441,1687.734,2539.622,1685.156,2539.622z"/>
					</g>
				</g>
				<g>
					<path style="fill:#000072;" d="M1148.036,2233.792c-2.754,0-5.535-0.816-7.966-2.505c-6.328-4.409-7.886-13.111-3.479-19.439
						c26.836-38.54,54.661-67.9,84.585-89.16c-83.049-53.794-107.847-42.837-110.007-41.65c-4.626,5.234-12.551,6.279-18.42,2.192
						c-6.328-4.404-7.888-13.105-3.484-19.438c7.327-10.513,40.894-38.174,165.217,47.588c3.928,2.71,6.201,7.241,6.025,12.012
						c-0.176,4.765-2.778,9.116-6.895,11.528c-33.447,19.594-64.231,49.98-94.106,92.885
						C1156.794,2231.702,1152.45,2233.792,1148.036,2233.792z M1112.133,2079.822c-0.002,0-0.005,0.005-0.007,0.01
						C1112.128,2079.827,1112.131,2079.822,1112.133,2079.822z M1112.15,2079.793c-0.005,0.005-0.007,0.015-0.012,0.02
						C1112.143,2079.808,1112.145,2079.798,1112.15,2079.793z M1112.167,2079.768c-0.005,0.01-0.01,0.015-0.015,0.024
						C1112.157,2079.783,1112.162,2079.778,1112.167,2079.768z M1112.184,2079.749c-0.007,0.005-0.012,0.015-0.017,0.02
						C1112.172,2079.763,1112.177,2079.754,1112.184,2079.749z"/>
				</g>
				<g style="opacity:0.3;">
					<path style="fill:#000072;" d="M1246.555,2122.872c-37.278,21.827-69.576,55.428-98.523,96.941l-47.285-148.041
						C1100.748,2071.772,1124.017,2038.31,1246.555,2122.872z"/>
				</g>
				<g>
					<path style="fill:#000072;" d="M1255.056,2111.797l63.306,55.623c3.483,3.062,3.826,8.364,0.765,11.848
						c-2.812,3.201-7.518,3.748-10.966,1.443l-70.106-46.763c-6.429-4.287-8.164-12.976-3.876-19.404s12.976-8.164,19.405-3.877
						C1254.083,2111.001,1254.613,2111.414,1255.056,2111.797z"/>
				</g>
				<g>
					<path style="fill:#000072;" d="M1787.963,2104.744c-6.228,0-11.904-4.199-13.518-10.508
						c-17.329-67.847-14.048-119.541,9.756-153.65c22.378-32.068,54.682-35.723,56.047-35.862
						c7.686-0.767,14.526,4.795,15.313,12.466c0.781,7.632-4.739,14.458-12.351,15.3c-1.14,0.144-21.75,3.04-36.492,24.629
						c-18.32,26.826-20.125,71.848-5.217,130.203c1.907,7.471-2.603,15.078-10.073,16.982
						C1790.27,2104.602,1789.106,2104.744,1787.963,2104.744z"/>
				</g>
				<g>
					<path style="fill:#000072;" d="M1199.23,2471.504c-15.69-1.792-31.203-3.33-46.741-4.121
						c-15.533-0.742-31.054-0.95-46.58-0.344c-15.526,0.522-31.047,1.755-46.604,3.352c-15.558,1.641-31.121,3.762-46.919,5.703
						l-0.039,0.005c-3.854,0.476-7.364-2.266-7.838-6.121c-0.402-3.264,1.508-6.282,4.442-7.417
						c15.246-5.898,31.091-10.2,47.202-13.281c16.11-3.127,32.516-4.912,48.992-5.447c16.473-0.452,33.023,0.247,49.363,2.561
						c16.333,2.261,32.491,5.923,47.956,11.526c3.648,1.323,5.534,5.352,4.213,9.001c-1.13,3.118-4.24,4.949-7.398,4.587
						L1199.23,2471.504z"/>
				</g>
				<g>
					<path style="fill:#000072;" d="M1210.843,2528.069c-14.96,1.704-29.673,3.882-44.216,6.946
						c-14.537,3.064-28.889,6.853-43.098,11.287c-14.166,4.553-28.253,9.495-42.245,14.932
						c-14.065,5.281-27.995,11.069-42.366,16.401l-0.038,0.015c-3.649,1.353-7.705-0.508-9.059-4.158
						c-1.116-3.008-0.039-6.296,2.416-8.118c12.625-9.336,26.273-17.158,40.402-24.089c14.198-6.772,28.922-12.642,44.136-17.073
						c15.168-4.553,30.768-7.917,46.569-9.722c15.789-1.804,31.794-2.192,47.563-0.383c3.853,0.442,6.619,3.923,6.176,7.778
						c-0.38,3.308-3.002,5.815-6.177,6.177L1210.843,2528.069z"/>
				</g>
				<g>
					<path style="fill:#000072;" d="M1246.689,2575.984c-10.28,7.092-20.319,13.813-29.813,21.265
						c-9.519,7.38-18.683,15.132-27.361,23.535c-8.624,8.445-16.832,17.412-24.623,26.877c-7.857,9.424-15.239,19.348-22.804,29.39
						l-0.029,0.037c-2.339,3.103-6.752,3.723-9.856,1.384c-2.599-1.958-3.453-5.376-2.29-8.257
						c4.898-12.124,11.176-23.701,18.395-34.758c7.28-11.011,15.569-21.492,24.966-30.989c9.332-9.546,19.709-18.223,31.114-25.3
						c11.418-7.021,23.682-12.751,36.655-15.952c3.801-0.938,7.642,1.384,8.58,5.186c0.724,2.937-0.497,5.898-2.843,7.524
						L1246.689,2575.984z"/>
				</g>
				<g>
					<path style="fill:#000072;" d="M1956.18,2267.891l-45.43,33.591c-3.11,2.3-7.496,1.643-9.797-1.467
						c-2.067-2.795-1.744-6.621,0.599-9.036l39.298-40.596c4.485-4.631,11.876-4.751,16.508-0.269
						c4.633,4.485,4.752,11.877,0.268,16.509C1957.189,2267.078,1956.669,2267.524,1956.18,2267.891z"/>
				</g>
				<g>
					<path style="fill:#000072;" d="M1917.061,2352.366l57.618-21.941c6.022-2.292,12.763,0.73,15.056,6.75
						c2.294,6.023-0.729,12.764-6.752,15.059c-0.537,0.203-1.144,0.378-1.689,0.5l-60.265,13.018
						c-3.779,0.815-7.505-1.587-8.321-5.366C1911.968,2356.958,1913.878,2353.574,1917.061,2352.366z"/>
				</g>
				<g>
					<path style="fill:#000072;" d="M1936.052,2410.149l46.855,0.164c6.458,0.022,11.674,5.276,11.652,11.733
						s-5.276,11.675-11.733,11.653c-0.769-0.002-1.583-0.095-2.31-0.239l-45.899-9.424c-3.795-0.779-6.241-4.487-5.461-8.281
						C1929.838,2412.424,1932.779,2410.134,1936.052,2410.149z"/>
				</g>
				<g>
					<path style="fill:#000072;" d="M1795.724,2642.434c19.544,49.253,29.822,101.924,31.289,154.609
						c1.492,52.722-5.621,105.479-20.296,155.962c-14.71,50.474-36.938,98.838-66.66,142.5
						c-29.719,43.542-67.143,82.666-112.498,111.543l7.112-17.727l5.429,21.719l-11.82-11.846
						c17.192,4.333,32.864,13.948,44.511,27.407c11.586,13.345,19.584,31.201,18.946,50.549c-0.269,9.568-2.758,19.202-7.105,27.661
						c-4.364,8.457-10.373,15.696-17.021,21.567c-13.447,11.697-28.832,18.479-43.986,23.252c-1.512,0.476-3.043,0.706-4.549,0.713
						l-0.209-0.002h-92.302c-0.625,0-1.241-0.037-1.848-0.105l-0.227-0.029c-19.968-2.405-39.219-11.614-53.732-24.709
						c-14.725-13.008-25.43-29.036-33.361-45.667c-7.979-16.687-13.182-34.219-16.405-51.953c-0.822-4.436-1.475-8.889-2.043-13.352
						c-0.522-4.221-1.008-7.964-1.627-11.897c-1.265-7.742-2.636-15.33-4.625-22.637l-0.07-0.259
						c-0.126-0.459-0.228-0.94-0.305-1.399c-5.654-34.316-11.227-68.645-16.031-103.108c-2.556-17.205-4.572-34.502-6.884-51.748
						c-1.179-8.621-2.147-17.275-3.108-25.933c-0.985-8.652-1.977-17.305-2.774-25.991c-0.495-5.393,3.475-10.166,8.867-10.659
						c4.86-0.447,9.216,2.737,10.391,7.317c2.177,8.445,4.158,16.926,6.147,25.405c2.013,8.474,4.018,16.951,5.814,25.461
						c3.635,17.019,7.567,33.984,10.958,51.042c7.09,34.067,13.412,68.264,19.653,102.478l-0.375-1.655
						c2.521,8.821,4.506,17.666,5.823,26.465c0.675,4.338,1.252,8.901,1.747,12.988c0.48,3.843,1.029,7.676,1.726,11.475
						c2.743,15.195,7.124,30.051,13.449,43.667c6.295,13.591,14.641,25.972,24.996,35.259c10.297,9.395,22.606,15.269,35.919,17.097
						l-2.073-0.132h92.302l-4.755,0.71c12.208-3.804,23.575-9.194,31.902-16.484c8.316-7.31,12.948-16.235,13.16-25.84
						c0.416-9.595-3.822-19.978-11.016-28.228c-7.16-8.306-17.117-14.458-27.842-17.139c-6.011-1.501-10.394-6.174-11.811-11.79
						l-0.01-0.054l-5.429-21.719c-1.743-6.97,1.292-14.016,7.032-17.681l0.08-0.046c40.756-25.938,75.342-61.836,102.957-102.334
						c27.64-40.588,48.521-85.94,62.302-133.259c13.763-47.336,20.406-96.78,19.011-145.928
						c-1.37-49.131-10.936-97.964-28.99-143.484l-0.016-0.044c-3.317-8.362,0.774-17.83,9.136-21.145
						C1782.941,2629.983,1792.407,2634.072,1795.724,2642.434z"/>
				</g>
				<g>
					<path style="fill:#000072;" d="M1602.813,3196.021l-41.669-281.885c-0.789-5.342,2.9-10.31,8.242-11.101
						c5.184-0.767,10.024,2.712,11.025,7.8l54.512,279.688c1.721,8.831-4.043,17.388-12.875,19.109s-17.388-4.043-19.109-12.876
						C1602.895,3196.531,1602.847,3196.245,1602.813,3196.021z"/>
				</g>
				<g>
					<path style="fill:#000072;" d="M1168.558,2998.491c29.366-6.65,60.848-8.213,91.243-0.508
						c30.4,7.341,58.611,24.985,79.017,48.953c20.549,23.979,33.551,53.23,40.605,83.059c7.084,29.951,8.522,60.669,6.516,90.83
						l-12.839-15.637c12.021,1.172,24.218,3.56,36.194,8.064c11.929,4.47,23.765,11.194,33.576,21.094
						c9.821,9.8,17.109,23.003,19.626,37.146c2.601,14.119,0.919,28.831-4.893,42.002c-5.737,13.093-15.91,25.217-30.369,31.965
						c-7.083,3.32-15.497,5.005-22.974,4.939l-16.733,0.049l-66.935,0.19l-66.939,0.19l-33.47,0.093l-8.368,0.024
						c-2.77,0.022-6.176-0.422-9.232-0.627c-3.204-0.22-6.152-0.635-9.122-1.035c-2.979-0.386-5.959-0.769-8.906-1.355
						c-23.707-3.987-46.662-12-67.93-23.054c-21.183-11.233-40.728-25.518-57.673-42.434
						c-34.01-33.711-57.562-77.817-66.715-124.841c-9.363-46.899-3.679-96.995,15.288-140.615
						c4.675-10.955,10.035-21.611,16.204-31.772c6.087-10.186,13.132-20,19.882-28.953c13.706-18.264,28.519-35.789,44.346-52.434
						c31.661-33.252,68.171-62.512,108.834-84.917l-3.898,2.981l128.473-132.524c6.262-6.46,16.573-6.619,23.033-0.359
						c6.459,6.262,6.647,16.545,0.386,23.005l-128.148,132.839c-1.139,1.182-2.412,2.153-3.773,2.917l-0.126,0.066
						c-37.289,20.693-70.997,47.771-100.598,79.026c-14.791,15.647-28.719,32.197-41.677,49.565
						c-6.611,8.835-12.52,17.146-17.838,26.077c-5.364,8.875-9.99,18.169-14.021,27.683c-16.37,38.101-20.93,80.4-12.926,120.881
						c7.902,40.361,28.126,78.191,57.374,107.146c29.146,29.036,67.043,49.114,107.385,56.287c2.507,0.525,5.045,0.854,7.582,1.199
						c2.54,0.359,5.099,0.737,7.449,0.896c2.49,0.164,4.61,0.571,7.404,0.569l8.321,0.024l33.283,0.093l66.569,0.19l66.573,0.19
						l16.644,0.049c3.648,0.015,6.379-0.576,9.423-1.895c5.862-2.603,11.349-8.257,14.577-15.437
						c3.314-7.136,4.4-15.493,3.078-23.279c-1.321-7.815-5.021-15.085-10.733-21.194c-5.727-6.111-13.463-11.018-22.248-14.551
						c-8.785-3.56-18.536-5.803-28.59-7.251l-0.506-0.073c-7.619-1.099-12.985-7.993-12.335-15.566
						c2.433-27.683,1.658-55.642-4.079-82.412c-5.706-26.692-16.588-52.214-33.507-72.805
						c-16.707-20.674-39.493-36.177-65.431-43.34c-25.876-7.385-54.005-7.224-81.39-2.273l-0.068,0.012
						c-5.313,0.959-10.397-2.568-11.357-7.881C1160.165,3004.6,1163.494,2999.646,1168.558,2998.491z"/>
				</g>
				<g>
					<path style="fill:#000072;" d="M1307.056,3329.399l4.654-41.887c0.428-3.855,3.901-6.633,7.757-6.204
						c3.327,0.369,5.851,3.01,6.205,6.204l4.654,41.887c0.714,6.426-3.916,12.212-10.342,12.927
						c-6.426,0.713-12.214-3.916-12.928-10.342C1306.961,3331.128,1306.97,3330.222,1307.056,3329.399z"/>
				</g>
				<g>
					<path style="fill:#000072;" d="M1368.72,3329.399l4.654-41.887c0.428-3.855,3.901-6.633,7.756-6.204
						c3.328,0.369,5.851,3.01,6.205,6.204l4.654,41.887c0.714,6.426-3.916,12.212-10.342,12.927
						c-6.426,0.713-12.214-3.916-12.928-10.342C1368.625,3331.128,1368.634,3330.222,1368.72,3329.399z"/>
				</g>
				<g>
					<path style="fill:#000072;" d="M1607.233,3329.399l4.654-41.887c0.428-3.855,3.901-6.633,7.756-6.204
						c3.328,0.369,5.851,3.01,6.205,6.204l4.654,41.887c0.714,6.426-3.917,12.212-10.342,12.927
						c-6.426,0.713-12.213-3.916-12.927-10.342C1607.138,3331.128,1607.147,3330.222,1607.233,3329.399z"/>
				</g>
				<g>
					<path style="fill:#000072;" d="M1708.456,3329.399l4.654-37.231c0.482-3.857,3.998-6.592,7.853-6.108
						c3.26,0.408,5.718,2.991,6.108,6.108l4.654,37.231c0.803,6.426-3.755,12.285-10.181,13.088s-12.286-3.755-13.089-10.181
						C1708.335,3331.34,1708.345,3330.325,1708.456,3329.399z"/>
				</g>
				<g>
					<path style="fill:#000072;" d="M1759.648,3329.399l4.654-37.231c0.482-3.857,3.998-6.592,7.854-6.108
						c3.26,0.408,5.718,2.991,6.108,6.108l4.654,37.231c0.803,6.426-3.754,12.285-10.18,13.088s-12.286-3.755-13.09-10.181
						C1759.528,3331.34,1759.539,3330.325,1759.648,3329.399z"/>
				</g>
				<g>
					<path style="fill:#000072;" d="M1546.732,3329.399l4.654-41.887c0.428-3.855,3.901-6.633,7.756-6.204
						c3.328,0.369,5.851,3.01,6.205,6.204l4.654,41.887c0.714,6.426-3.916,12.212-10.342,12.927
						c-6.426,0.713-12.214-3.916-12.928-10.342C1546.637,3331.128,1546.646,3330.222,1546.732,3329.399z"/>
				</g>
				<g>
					<path style="fill:#000072;" d="M1773.127,3350.34h-95.964c-20.061,0-36.384-16.323-36.384-36.382
						c0-8.994,7.292-16.289,16.289-16.289c8.997,0,16.289,7.295,16.289,16.289c0,2.1,1.707,3.804,3.806,3.804h95.964
						c11.367,0,21.116-7.691,23.176-18.281c4.238-21.767-7.959-47.505-29.661-62.578c-4.336-3.013-6.943-7.939-6.995-13.223
						l-2.185-225.176c-0.085-8.994,7.136-16.358,16.13-16.445c0.054,0,0.107,0,0.161,0c8.923,0,16.199,7.188,16.287,16.133
						l2.107,217.182c27.979,22.969,42.371,58.286,36.133,90.327C1823.249,3331.565,1800.053,3350.34,1773.127,3350.34z"/>
				</g>
				<g>
					<path style="fill:#000072;" d="M988.683,3217.869c-103.545,0-187.705-39.17-239.439-112.256
						c-65.376-92.358-68.857-226.777-9.316-359.575c0.166-0.366,0.344-0.728,0.535-1.084c48.445-89.59,106.66-99.824,144.995-79.512
						c49.233,26.079,74.761,106.392,34.407,184.473c-31.831,67.144-36.167,130.957-11.89,175.122
						c18.657,33.935,52.896,54.863,99.011,60.522c8.931,1.094,15.281,9.219,14.185,18.149c-1.096,8.931-9.202,15.288-18.149,14.185
						c-56.13-6.885-100.024-34.287-123.594-77.163c-29.844-54.287-25.893-127.109,11.126-205.039
						c0.083-0.176,0.168-0.347,0.256-0.513c31.187-60.112,14.175-122.529-20.601-140.952
						c-31.201-16.528-69.797,8.638-100.803,65.694c-54.519,121.987-52.129,244.145,6.428,326.87
						c50.654,71.558,138.037,106.084,246.008,97.1c8.992-0.654,16.836,5.928,17.578,14.893s-5.923,16.831-14.888,17.578
						C1012.35,3217.366,1000.39,3217.869,988.683,3217.869z"/>
				</g>
				<g style="opacity:0.3;">
					<path style="fill:#000072;" d="M1850.4,2597.571l-3.351,15.823c-57.848,34.625-120.536,60.641-185.738,77.814
						c-405.682,106.807-669.605-119.14-513.279-471.395l89.634-102.991l65.992,49.89
						C1110.801,2385.446,1316.55,2835.432,1850.4,2597.571z"/>
				</g>
				<g style="opacity:0.3;">
					<path style="fill:#000072;" d="M1497.866,3238.275l-57.266-300.72c-1.842-9.671-14.263-12.6-20.231-4.77l-42.035,55.151
						c-9.39,12.32-27.357,13.856-38.702,3.309l0,0c-52.822-213.103,135.801-271.044,146.179-274.022
						c-68.179,15.73-128.029,1.024-159.164-9.913l-121.886,126.074c-60.408,33.322-111.135,82.142-154.742,142.456
						c-30.902,42.723-47.749,94.428-44.957,147.063c6.097,114.3,96.429,203.33,204.027,211.008
						c-1.582-1.489-3.164-2.979-4.794-4.514c-225.295-211.846-25.503-322.888-25.503-322.888
						c233.533-18.057,192.626,213.149,192.626,213.149l69.482,37.79l0.652,0.326l-0.838-5.026l-3.444-20.803
						c4.887,24.573,28.017,103.736,121.095,102.107v-33.973C1533.004,3289.607,1512.619,3269.503,1497.866,3238.275z
						 M1436.109,3225.104l1.164,6.748C1436.528,3228.315,1436.202,3225.896,1436.109,3225.104z"/>
				</g>
				<g style="opacity:0.3;">
					<path style="fill:#000072;" d="M1437.272,3231.852c-0.744-3.537-1.07-5.957-1.164-6.748L1437.272,3231.852z"/>
				</g>
				<g style="opacity:0.3;">
					<path style="fill:#000072;" d="M1437.272,3231.852c-0.744-3.537-1.07-5.957-1.164-6.748L1437.272,3231.852z"/>
				</g>
				<g style="opacity:0.3;">
					<path style="fill:#000072;" d="M1023.167,3200.113c-247.402,20.524-362.4-178.105-285.983-402.703v-0.047
						c5.026-14.799,10.89-29.692,17.592-44.678c62.316-115.23,139.757-90.053,162.235-22.571c0,0.047,0,0.047,0,0.047
						c-112.578-22.851-245.401,384.227,35.184,356.862h0.047c15.404,7.307,33.089,12.286,52.775,14.706L1023.167,3200.113z"/>
				</g>
				<g>
					<path style="fill:#000072;" d="M1836.665,2253.865c-8.241,4.18-16.507,9.004-23.879,14.246
						c-7.39,5.352-14.182,11.133-20.137,17.529c-5.982,6.353-11.331,13.152-15.651,20.632c-2.374,3.601-4.147,7.573-6.085,11.455
						c-1.865,3.918-3.203,8.13-4.89,12.18l-20.083-14.011c2.531-1.77,4.215-2.695,6.284-3.789c1.974-1.072,3.972-1.963,5.966-2.878
						c4.007-1.741,8.13-3.115,12.294-4.258c8.343-2.227,16.982-3.306,25.532-2.93c8.511,0.535,16.978,1.704,24.766,4.749
						c7.907,2.576,15.049,6.797,21.574,11.396c2.004,1.411,2.484,4.182,1.071,6.187c-1.038,1.472-2.806,2.122-4.467,1.804
						l-0.513-0.1c-3.681-0.71-7.157-1.731-10.685-2.373c-3.582-0.454-6.997-1.284-10.504-1.418
						c-6.929-0.688-13.761-0.464-20.364,0.496c-6.616,0.823-13.024,2.617-19.12,4.973c-3.062,1.155-5.993,2.593-8.861,4.048
						c-1.396,0.784-2.818,1.531-4.116,2.378c-1.247,0.745-2.771,1.855-3.334,2.268l-0.238,0.176
						c-5.71,4.199-13.743,2.974-17.941-2.737c-2.502-3.403-3.056-7.7-1.904-11.45c3.246-10.33,7.125-20.674,13.178-29.937
						c5.632-9.473,13.179-17.786,21.558-24.78c8.387-7.017,17.816-12.649,27.841-16.392c10.001-3.892,20.248-6.208,31.219-6.143
						c2.46,0.015,4.443,2.021,4.429,4.482c-0.01,1.721-0.998,3.21-2.434,3.943L1836.665,2253.865z"/>
				</g>
				<g>
					<g>
						
							<ellipse transform="matrix(0.935 -0.3547 0.3547 0.935 -741.8109 679.2026)" style="fill:#000072;" cx="1481.574" cy="2362.841" rx="66.721" ry="87.621"/>
					</g>
					<g>
						
							<ellipse transform="matrix(0.935 -0.3547 0.3547 0.935 -733.7974 681.2467)" style="fill:#FFFFFF;" cx="1491.116" cy="2341.963" rx="19.488" ry="25.593"/>
					</g>
				</g>
			</g>
			<g>
				<path style="fill:#FF960B;" d="M1254.133,2868.761c39.211,9.257,79.863-0.495,113.586-27.207
					c29.497-23.364,25.818-69.339-6.453-88.691l-78.184-46.884c-24.288-14.564-56.379-8.868-72.562,14.373
					c-15.609,22.417-20.219,50.908-16.748,79.574C1197.803,2833.217,1221.495,2861.056,1254.133,2868.761z"/>
			</g>
			<g style="opacity:0.3;">
				<path style="fill:#000072;" d="M1377.719,2791.553c-33.724,26.714-74.374,36.465-113.586,27.207
					c-32.639-7.705-56.331-35.542-60.361-68.835c-0.643-5.31-0.908-10.601-0.978-15.864c-9.243,19.797-11.821,42.747-9.022,65.864
					c4.031,33.293,27.723,61.13,60.361,68.835c39.211,9.258,79.862-0.493,113.586-27.207c18.239-14.446,23.76-37.529,17.714-57.627
					C1383.154,2786.643,1380.647,2789.236,1377.719,2791.553z"/>
			</g>
			<g style="opacity:0.55;">
				<path style="fill:#FFFFFF;" d="M1200.52,2755.352c16.183-23.24,48.275-28.938,72.562-14.373l78.184,46.882
					c16.287,9.768,25.266,26.316,26.398,43.315c18.036-24.717,11.599-61.526-16.398-78.315l-78.184-46.882
					c-24.288-14.565-56.379-8.867-72.562,14.373c-9.66,13.872-15.087,30.078-17.013,47.205
					C1195.564,2763.345,1197.819,2759.229,1200.52,2755.352z"/>
			</g>
			<g>
				<path style="fill:#000072;" d="M1283.591,2888.513c-11.04,0-22.148-1.289-33.198-3.896c-0.003,0-0.003,0-0.003,0
					c-38.65-9.126-67.903-42.373-72.788-82.734c-4.001-33.057,1.877-63.14,17-87.002c20.498-32.344,64.18-42.471,97.363-22.568
					l77.678,46.582c19.968,11.973,32.793,33.027,34.307,56.319c1.509,23.222-8.01,44.771-26.116,59.111
					C1349.408,2876.834,1316.818,2888.513,1283.591,2888.513z M1257.873,2852.908c34.414,8.13,69.839-0.449,99.734-24.121
					c9.597-7.603,14.639-19.073,13.833-31.465c-0.83-12.803-7.593-23.916-18.55-30.488l-77.678-46.582
					c-18.157-10.874-41.973-5.469-53.096,12.07c-13.962,22.031-14.326,47.857-12.173,65.645c3.252,26.86,22.515,48.94,47.932,54.941
					H1257.873z"/>
			</g>
			<g>
				<path style="fill:#000072;" d="M2441.5,2356.584c-13.043-2.637-26.531-4.866-39.562-5.972
					c-13.097-1.162-26.008-1.331-38.607-0.452c-6.327,0.303-12.501,1.304-18.678,2.112c-3.058,0.549-6.074,1.279-9.108,1.89
					c-1.506,0.347-3.041,0.579-4.537,0.947l-4.434,1.313c-12.012,2.954-23.136,8.325-34.221,13.84l-7.704-32.48
					c1.256,0.11,2.028,0.222,2.874,0.334c0.868,0.107,1.677,0.232,2.452,0.369c1.581,0.278,3.164,0.559,4.667,0.908
					c3.071,0.623,6.031,1.426,8.997,2.212c5.898,1.631,11.606,3.745,17.202,6.055c11.174,4.673,21.713,10.791,31.256,18.135
					c9.5,7.366,18.226,15.74,25.151,25.396c7.363,9.268,12.62,19.939,16.866,30.571c1.23,3.083-0.271,6.58-3.352,7.81
					c-2.297,0.918-4.825,0.317-6.473-1.326l-0.507-0.508c-3.818-3.816-7.07-7.888-10.841-11.465
					c-3.829-3.53-7.373-7.173-11.422-10.276c-7.787-6.477-16.155-11.963-24.871-16.567c-8.635-4.727-17.755-8.447-27.072-11.292
					c-4.652-1.44-9.375-2.571-14.065-3.589c-2.351-0.444-4.697-0.92-7.008-1.213c-1.173-0.195-2.29-0.303-3.408-0.422
					c-0.573-0.076-1.115-0.139-1.603-0.171l-1.198-0.095l-0.46-0.037c-9.573-0.75-16.726-9.119-15.975-18.691
					c0.465-5.93,3.947-10.981,8.732-13.752c13.406-7.632,27.516-14.658,42.704-18.186c3.74-1.067,7.488-2.078,11.343-2.542
					c3.827-0.588,7.642-1.27,11.469-1.738c7.697-0.454,15.374-1.123,23.002-0.52c15.245,0.688,30.212,3.467,44.337,8.259
					c14.144,4.958,27.39,11.223,39.525,20.535c2.65,2.034,3.149,5.83,1.117,8.479c-1.451,1.892-3.801,2.688-5.99,2.251
					L2441.5,2356.584z"/>
			</g>
		</g>
		<g>
			<path style="fill:#000072;" d="M802.5,3327.5c50.562-11.57,101.125-14.639,151.687-15.869
				c50.562-1.609,101.125-0.757,151.687,0.12c50.562,0.938,101.125,0.728,151.687,0.75h151.687h606.748h606.748h303.374
				l75.844-0.024c25.282,0.017,50.563-1.016,75.844-1.489c25.282-0.486,50.563,0.266,75.844,2.151
				c25.282,2.227,50.563,5.938,75.844,14.363c4.142,1.379,6.381,5.857,5,10c-0.813,2.439-2.74,4.231-5,5
				c-25.281,8.425-50.562,12.136-75.844,14.363c-25.281,1.885-50.562,2.637-75.844,2.151c-25.281-0.474-50.562-1.506-75.844-1.489
				l-75.844-0.024h-303.374h-606.748h-606.748h-151.687c-50.562,0.022-101.125-0.188-151.687,0.75
				c-50.562,0.876-101.125,1.729-151.687,0.12c-50.562-1.23-101.125-4.299-151.687-15.869c-4.142-0.947-6.732-5.073-5.784-9.216
				C797.396,3330.315,799.718,3328.142,802.5,3327.5z"/>
		</g>
	</g>
</g>
</svg>
